<?xml version="1.0" encoding="UTF-8"?><!DOCTYPE svg PUBLIC "-//W3C//DTD SVG 1.1//EN" "http://www.w3.org/Graphics/SVG/1.1/DTD/svg11.dtd"><svg xmlns="http://www.w3.org/2000/svg" xmlns:xlink="http://www.w3.org/1999/xlink"><defs><clipPath id="a"><path fill="#fff" d="M0 0h24v24H0z"/></clipPath><clipPath id="a"><path fill="#fff" d="M0 0h24v24H0z"/></clipPath><clipPath id="a"><path fill="#fff" d="M0 0h22v22H0z"/></clipPath><clipPath id="a"><path fill="#fff" d="M0 0h24v24H0z"/></clipPath><clipPath id="a"><path fill="#fff" d="M0 0h16v16H0z"/></clipPath></defs><symbol id="down-arrow"><g clip-path="url(#a)"><path fill="#fff" d="M7.41 8.59 12 13.17l4.59-4.58L18 10l-6 6-6-6 1.41-1.41Z"/></g></symbol><symbol id="level"><path fill="#7890B2" d="M11.556 0H1.778C.8 0 0 .8 0 1.778v12.444C0 15.2.8 16 1.778 16h12.444C15.2 16 16 15.2 16 14.222V4.444L11.556 0Zm-8 3.556H8v1.777H3.556V3.556Zm8.888 8.888H3.556v-1.777h8.888v1.777Zm0-3.555H3.556V7.11h8.888V8.89Zm-1.777-3.556V1.778l3.555 3.555h-3.555Z"/></symbol><symbol id="menu"><g clip-path="url(#a)"><path fill="#A1A1AA" d="M4 8h4V4H4v4Zm6 12h4v-4h-4v4Zm-6 0h4v-4H4v4Zm0-6h4v-4H4v4Zm6 0h4v-4h-4v4Zm6-10v4h4V4h-4Zm-6 4h4V4h-4v4Zm6 6h4v-4h-4v4Zm0 6h4v-4h-4v4Z"/></g></symbol><symbol id="project-icon"><g clip-path="url(#a)"><path fill="#fff" d="M2.75 11.917h7.333V2.75H2.75v9.167Zm0 7.333h7.333v-5.5H2.75v5.5Zm9.167 0h7.333v-9.167h-7.333v9.167Zm0-16.5v5.5h7.333v-5.5h-7.333Z"/></g></symbol><symbol id="share"><g clip-path="url(#a)"><path fill="#A1A1AA" d="M10 9V5l-7 7 7 7v-4.1c5 0 8.5 1.6 11 5.1-1-5-4-10-11-11Z"/></g></symbol><symbol id="trash"><g clip-path="url(#a)"><path fill="#DF4444" d="M2.5 1a1 1 0 0 0-1 1v1a1 1 0 0 0 1 1H3v9a2 2 0 0 0 2 2h6a2 2 0 0 0 2-2V4h.5a1 1 0 0 0 1-1V2a1 1 0 0 0-1-1H10a1 1 0 0 0-1-1H7a1 1 0 0 0-1 1H2.5Zm3 4a.5.5 0 0 1 .5.5v7a.5.5 0 0 1-1 0v-7a.5.5 0 0 1 .5-.5ZM8 5a.5.5 0 0 1 .5.5v7a.5.5 0 0 1-1 0v-7A.5.5 0 0 1 8 5Zm3 .5v7a.5.5 0 0 1-1 0v-7a.5.5 0 0 1 1 0Z"/></g></symbol></svg>